PathFileType	4	(X/Y/Z)	D:\TRACE\spot_10-12-23\spot_arm_body_motion_3_4-platform.trc
DataRate	CameraRate	NumFrames	NumMarkers	Units	OrigDataRate	OrigDataStartFrame	OrigNumFrames
100.00	100.00	      73	5	mm	100.00	6126	      7000
Frame#	Time	Left_Front			Right_Front			Left_Aft			Right_Aft			Post			
		X1	Y1	Z1	X2	Y2	Z2	X3	Y3	Z3	X4	Y4	Z4	X5	Y5	Z5	

6126	61.250	-762.05652	12.86173	-639.94458	810.62665	17.82073	-632.97028	-679.04803	0.61052	497.92828	738.39661	4.51253	584.12213	21.01938	753.92920	-950.23517	
6127	61.260	-761.89124	13.20908	-639.84418	810.97192	17.99037	-632.86957	-678.85754	0.35271	497.77335	738.70203	4.28076	584.16840	21.24051	754.35449	-949.77948	
6128	61.270	-761.72418	13.58063	-639.85303	811.15430	18.26813	-632.85889	-678.72772	0.02098	497.88339	738.75787	3.94587	584.20203	21.35879	754.79541	-949.49756	
6129	61.280	-761.47089	13.97904	-639.84766	811.37384	18.56281	-632.85663	-678.45764	-0.27716	498.19083	738.86273	3.70065	584.32788	21.61591	755.25769	-949.23218	
6130	61.290	-761.27045	14.27187	-639.78284	811.48529	18.73501	-632.80927	-678.08459	-0.57147	498.35916	739.06909	3.43604	584.43048	21.84563	755.71954	-949.00989	
6131	61.300	-761.03058	14.64859	-639.69293	811.70923	19.38466	-632.63867	-677.98694	-0.66099	498.47659	739.30072	3.17109	584.50159	21.72576	755.99078	-948.82501	
6132	61.310	-760.79022	14.94406	-639.67188	811.98260	19.97370	-632.37988	-677.79114	-0.75256	498.52350	739.58496	2.84439	584.54462	22.12669	756.73108	-948.74933	
6133	61.320	-760.79620	15.41991	-639.45203	812.10370	20.22633	-632.27136	-677.67059	-1.01689	498.62073	739.72321	2.55597	584.58917	22.20689	757.42163	-948.43909	
6134	61.330	-760.48657	15.76983	-639.34302	812.28101	20.35066	-632.25879	-677.51190	-1.29758	498.52005	739.67896	2.07752	584.67706	22.57623	757.97522	-947.94818	
6135	61.340	-760.07513	15.95475	-639.31189	812.47546	20.65593	-632.11713	-677.31287	-1.71113	498.56445	739.87030	1.74901	584.76990	22.86056	758.30634	-947.47693	
6136	61.350	-759.99567	16.15241	-639.18964	812.63324	21.04407	-632.01935	-677.09167	-2.04992	498.68372	740.09314	1.47406	584.85278	23.06970	758.92285	-946.97839	
6137	61.360	-760.12970	16.83944	-639.15503	812.88068	21.63739	-631.89001	-676.96283	-2.18873	498.82813	740.37183	1.27300	584.96918	22.75276	759.56384	-946.38635	
6138	61.370	-760.09277	17.40486	-638.95148	813.02380	22.05899	-631.92700	-676.79608	-2.39381	498.93005	740.48383	1.03483	585.02234	22.88645	760.25165	-945.51367	
6139	61.380	-759.76410	17.48557	-638.77618	813.20062	22.39314	-631.86493	-676.69232	-2.66030	498.90262	740.70392	0.78159	585.14899	23.62869	760.55670	-944.58398	
6140	61.390	-759.67596	17.97945	-638.83832	813.27460	22.58615	-631.86694	-676.51196	-2.99329	498.96451	740.84564	0.53441	585.25732	23.59021	761.04773	-943.77972	
6141	61.400	-759.54089	18.36648	-638.86371	813.31781	22.88140	-631.83228	-676.50214	-3.11648	499.00647	740.78644	0.11277	585.29773	23.24690	761.55688	-943.02020	
6142	61.410	-759.46777	18.58692	-638.75421	813.38025	23.26122	-631.62811	-676.44604	-3.27462	499.05566	740.86047	-0.13118	585.42932	23.54083	762.00433	-942.43530	
6143	61.420	-759.42993	19.03212	-638.55963	813.47101	23.77204	-631.54810	-676.38934	-3.52505	499.15665	741.01257	-0.56653	585.51563	24.06213	762.73682	-941.92358	
6144	61.430	-759.36719	19.52594	-638.31128	813.53491	24.22817	-631.43201	-676.30792	-3.84040	499.36539	741.11627	-0.86171	585.60706	25.71351	762.53461	-942.37006	
6145	61.440	-759.17975	19.79754	-638.20447	813.56079	24.53256	-631.32172	-676.14771	-4.23145	499.51187	741.09747	-1.20452	585.74402	23.81019	763.86255	-941.00079	
6146	61.450	-759.13141	20.16288	-638.25934	813.58948	24.87476	-631.23871	-676.00500	-4.59258	499.60062	741.01764	-1.56469	585.94763	23.81946	764.34241	-940.81165	
6147	61.460	-759.12219	20.55308	-638.30975	813.71564	25.31156	-631.16138	-675.96973	-4.83761	499.66934	741.13733	-1.85186	586.07861	24.11905	765.05273	-940.56641	
6148	61.470	-759.12634	21.14059	-638.13281	813.68634	25.79148	-631.15765	-675.92554	-4.97736	499.65112	741.31750	-2.15554	586.24304	24.11366	765.67944	-940.30505	
6149	61.480	-759.07300	21.46881	-637.78668	813.68689	26.25297	-630.97260	-675.89746	-5.18156	499.73026	741.32617	-2.38487	586.38251	24.03653	766.14111	-940.04675	
6150	61.490	-759.03638	21.92668	-637.76434	813.65479	26.62398	-630.81372	-675.86481	-5.47928	499.81891	741.30731	-2.59903	586.49353	24.02959	766.74054	-939.64032	
6151	61.500	-758.99768	22.29570	-637.72418	813.70557	27.05026	-630.69684	-675.89026	-5.81060	499.84564	741.24396	-2.93008	586.73438	23.95864	767.39563	-938.95776	
6152	61.510	-759.01129	22.54890	-637.73334	813.87360	27.37635	-630.57568	-675.85522	-6.22204	500.03787	741.23914	-3.36387	586.79291	24.17438	768.02863	-938.09174	
6153	61.520	-759.00635	23.05022	-637.70660	813.85175	27.70083	-630.47589	-675.90265	-6.50515	500.16293	741.18219	-3.86064	586.84229	24.14567	768.41193	-937.55768	
6154	61.530	-759.05267	23.71548	-637.46436	813.81335	28.16050	-630.22040	-675.88934	-6.71564	500.26126	741.22278	-3.96904	587.14954	24.14294	769.03339	-936.74493	
6155	61.540	-759.00824	24.07534	-637.28430	813.76825	28.48572	-630.15155	-675.87427	-7.04143	500.27454	741.31946	-4.20703	587.22058	23.86992	769.65375	-935.92072	
6156	61.550	-758.78198	24.06742	-637.21796	813.71490	28.74065	-630.03943	-675.89648	-7.24552	500.32053	741.06543	-4.76157	587.39636	24.05429	770.18018	-935.22583	
6157	61.560	-758.89337	24.32860	-637.12109	813.60712	29.12209	-629.98456	-675.90430	-7.53699	500.35687	740.95001	-5.13739	587.60730	24.17289	770.78302	-934.34601	
6158	61.570	-759.00623	24.77907	-636.94519	813.63116	29.63748	-629.92914	-675.93018	-7.77580	500.42059	741.20355	-5.56020	586.73969	24.02579	771.54413	-933.65375	
6159	61.580	-759.14063	25.29070	-636.73041	813.69989	30.30875	-629.75665	-675.89368	-8.01280	500.55307	741.19196	-5.75945	586.78729	24.05583	772.06494	-933.24152	
6160	61.590	-759.18103	25.81918	-636.63843	813.58875	30.72602	-629.71729	-675.90924	-8.34999	500.72510	741.21344	-6.02025	586.85968	23.99155	772.60809	-932.90717	
6161	61.600	-759.20227	26.34355	-636.50146	813.58197	31.03686	-629.54999	-675.93646	-8.72318	500.84692	741.12335	-6.52545	586.94305	23.85501	773.37354	-932.36981	
6162	61.610	-759.30566	26.74170	-636.48169	813.54358	31.48742	-629.40106	-676.04102	-9.13493	501.21677	741.03241	-6.98415	587.14795	23.51946	773.97760	-931.83301	
6163	61.620	-759.60632	27.20942	-636.34387	813.30469	31.91419	-629.33527	-676.27679	-9.57375	501.14713	740.85303	-7.35453	587.24005	23.19193	774.36023	-931.52173	
6164	61.630	-759.75452	27.49471	-636.31140	813.08392	32.30274	-629.23730	-676.57147	-9.78241	501.16367	740.72479	-7.74822	587.20001	22.89677	775.10413	-931.00824	
6165	61.640	-759.84235	27.76656	-636.09332	812.93872	32.72686	-629.11584	-676.75690	-10.00278	501.21844	740.44434	-7.98786	587.26630	22.40242	776.08942	-930.31354	
6166	61.650	-760.04236	28.11557	-636.04871	812.66766	33.14316	-629.01740	-676.90417	-10.24324	501.33621	740.27515	-8.24020	587.35028	22.91939	776.36603	-929.85388	
6167	61.660	-760.24542	28.50830	-636.01917	812.55957	33.41113	-628.98187	-676.97876	-10.39727	501.44559	740.15601	-8.55699	587.40411	22.89561	776.73499	-929.28003	
6168	61.670	-760.47089	28.96253	-635.91669	812.40912	33.60654	-628.94873	-677.15863	-10.62135	501.44678	740.04431	-8.81140	587.54358	22.50409	777.20001	-928.67261	
6169	61.680	-760.62817	29.31105	-635.69739	812.20868	33.87651	-628.88898	-677.41089	-10.91607	501.60663	740.01727	-9.05077	587.66730	22.20098	777.65302	-928.04462	
6170	61.690	-761.03094	30.08343	-635.53973	812.09564	34.44542	-628.72485	-677.68768	-11.04355	501.62772	739.85095	-9.34757	587.76984	21.94593	778.30090	-927.47015	
6171	61.700	-761.07184	30.01181	-635.39221	811.79498	34.98241	-628.60883	-677.90363	-11.38101	501.72461	739.63000	-9.53730	587.88550	21.68598	778.99084	-926.95428	
6172	61.710	-761.33099	30.46617	-635.42731	811.54169	35.29503	-628.38568	-678.10107	-11.74059	501.99808	739.24347	-9.92048	587.87225	21.51259	779.44318	-926.48468	
6173	61.720	-761.57263	30.83274	-635.43109	811.28412	35.65448	-628.28857	-678.34534	-11.89005	501.90393	738.92542	-10.29701	587.90771	21.27670	779.94983	-926.02344	
6174	61.730	-761.75031	31.20755	-635.45117	810.96771	35.94146	-628.14966	-678.57489	-12.17221	502.06369	738.66876	-10.60896	587.96075	21.16225	780.39832	-925.74457	
6175	61.740	-762.11816	31.77792	-635.20636	810.77551	36.21275	-628.03796	-678.78168	-12.43493	502.09848	738.46753	-10.95998	588.07007	20.90331	780.96002	-925.21973	
6176	61.750	-762.39081	32.11803	-634.99518	810.48627	36.46735	-627.96582	-679.02704	-12.68717	502.12961	738.22357	-11.31210	588.25562	20.78778	781.56897	-924.70111	
6177	61.760	-762.53973	32.29325	-634.89893	810.21863	36.91874	-627.86841	-679.35272	-12.96837	502.23251	737.99841	-11.59112	588.43127	20.54034	782.20758	-924.17621	
6178	61.770	-762.80414	32.47109	-634.78497	809.99115	37.35464	-627.86719	-679.61414	-13.13703	502.22879	737.68732	-11.92860	588.43280	20.07948	782.99091	-923.49609	
6179	61.780	-763.02985	32.64422	-634.71240	809.66956	37.70534	-627.84595	-679.86646	-13.35693	502.27719	737.30542	-12.25017	588.42358	19.97803	783.14703	-923.31458	
6180	61.790	-763.39673	32.95759	-634.60712	809.41388	37.99423	-627.65106	-680.25580	-13.55445	502.31592	737.05603	-12.42998	588.40808	19.82502	783.33160	-922.70831	
6181	61.800	-763.60541	33.19608	-634.47522	809.26892	38.25486	-627.41638	-680.67633	-13.78543	502.33865	736.82550	-12.61578	588.43976	19.50647	783.91449	-922.12585	
6182	61.810	-764.00549	33.76833	-634.37646	808.92700	38.52053	-627.40656	-680.88806	-13.95890	502.38977	736.51581	-12.84328	588.51172	19.24183	784.34430	-921.72736	
6183	61.820	-764.26105	34.07888	-634.30511	808.67511	38.93224	-627.25720	-681.04242	-14.20124	502.43698	736.33728	-13.06234	588.64813	18.90088	784.66235	-921.18481	
6184	61.830	-764.51263	34.31933	-634.21332	808.28833	39.28390	-627.13037	-681.14752	-14.35814	502.52298	736.08331	-13.33659	588.82117	18.51999	785.17767	-920.70752	
6185	61.840	-764.75549	34.59341	-634.15308	808.04285	39.52543	-627.14526	-681.55750	-14.61183	502.60547	735.72839	-13.63371	588.93188	20.07715	784.75464	-921.34192	
6186	61.850	-765.03589	34.98863	-634.12177	807.75714	39.87731	-627.02209	-681.88037	-14.90885	502.74966	735.43591	-13.92683	588.98126	17.97413	786.02380	-920.11090	
6187	61.860	-765.18500	35.15977	-634.04987	807.45630	40.13919	-626.99292	-682.35870	-15.18994	502.84253	735.13068	-14.19944	588.99066	17.59317	786.64264	-919.62640	
6188	61.870	-765.73352	35.58421	-633.83435	807.17206	40.37638	-626.93787	-682.74786	-15.33980	502.90475	734.74677	-14.39267	588.98407	17.27894	786.99768	-919.19708	
6189	61.880	-766.14331	36.01750	-633.79700	806.86090	40.67255	-626.84656	-683.00635	-15.52933	502.94571	734.27124	-14.65196	589.01166	16.97097	787.29968	-918.97089	
6190	61.890	-766.51471	36.29198	-633.79370	806.37787	40.98979	-626.77130	-683.24133	-15.69078	503.00217	733.93890	-14.82969	589.10089	16.42157	787.95825	-918.66058	
6191	61.900	-766.90155	36.59657	-633.70697	806.06818	41.16576	-626.67279	-683.54498	-15.89173	503.06799	733.74518	-14.97315	589.18884	15.63138	788.74249	-918.01477	
6192	61.910	-766.95062	36.61617	-633.67865	805.77118	41.30881	-626.69464	-683.95044	-16.12461	503.05786	733.51813	-15.11638	589.27875	15.95124	788.37640	-917.85889	
6193	61.920	-767.30463	36.86139	-633.54547	805.47333	41.53011	-626.65112	-684.29572	-16.26296	503.03918	733.14282	-15.32020	589.30945	15.56323	788.68195	-917.57880	
6194	61.930	-767.79541	37.08447	-633.44617	805.11731	41.72805	-626.59424	-684.54541	-16.37473	503.06232	732.74756	-15.54640	589.37122	15.31315	788.87872	-917.30963	
6195	61.940	-768.18512	37.32199	-633.39978	804.79761	41.92624	-626.55103	-684.66620	-16.48306	503.11844	732.51373	-15.63315	589.40015	14.89540	789.16107	-916.97229	
6196	61.950	-768.28552	37.99336	-633.49231	804.37189	42.15551	-626.56067	-685.12494	-16.60228	503.12186	732.28625	-15.76706	589.41510	14.40508	789.49890	-916.64185	
6197	61.960	-768.58209	38.15167	-633.43964	804.05231	42.32751	-626.50970	-685.49243	-16.53521	503.17603	731.93542	-15.90298	589.40845	14.11820	789.88733	-916.37848	
6198	61.970	-769.01733	37.97836	-633.28308	803.89331	42.18087	-626.43097	-685.80725	-16.72105	503.20160	731.49042	-16.03462	589.42847	14.04217	790.22748	-916.15955	
